<?xml version="1.0" encoding="UTF-8"?>
<svg width="700pt" height="700pt" version="1.1" viewBox="0 0 700 700" xmlns="http://www.w3.org/2000/svg">
 <path d="m282.82 66.254c11.82-3.7148 22.281 8.625 16.688 19.676-12.766 25.223-19.508 53.148-19.508 82.07 0 100.52 81.484 182 182 182 28.922 0 56.848-6.7422 82.07-19.508 11.051-5.5938 23.391 4.8672 19.676 16.688-29.074 92.594-115.19 156.82-213.75 156.82-123.71 0-224-100.29-224-224 0-98.559 64.227-184.67 156.82-213.75zm-128.82 213.75c0 108.25 87.754 196 196 196 75.293 0 142.29-42.84 175.01-107.62-20.172 6.3398-41.363 9.6211-63.012 9.6211-115.98 0-210-94.02-210-210 0-21.648 3.2812-42.84 9.6211-63.012-64.781 32.723-107.62 99.719-107.62 175.01z"/>
</svg>
